<svg width="17" height="16" viewBox="0 0 17 16" fill="none" xmlns="http://www.w3.org/2000/svg">
<g clip-path="url(#clip0_2_465)">
<path d="M8.59998 10.6666C8.80711 10.6607 8.99651 10.5831 9.15044 10.4161L12.8987 6.53799C13.029 6.40678 13.1 6.23979 13.1 6.04297C13.1 5.64935 12.7922 5.33325 12.4016 5.33325C12.2122 5.33325 12.0286 5.41079 11.8925 5.54796L8.60591 8.96685L5.30742 5.54796C5.17128 5.41675 4.99372 5.33325 4.7984 5.33325C4.40776 5.33325 4.09998 5.64935 4.09998 6.04297C4.09998 6.23979 4.171 6.40678 4.30122 6.53799L8.05544 10.4161C8.21524 10.5831 8.39284 10.6666 8.59998 10.6666Z" fill="#7E818C"/>
</g>
<defs>
<clipPath id="clip0_2_465">
<rect width="16" height="16" fill="white" transform="translate(0.599976)"/>
</clipPath>
</defs>
</svg>
