<svg width="25" height="25" viewBox="0 0 25 25" fill="none" xmlns="http://www.w3.org/2000/svg">
<path d="M8.54998 4.5498C11.1179 4.5498 12.6 6.70214 12.6 6.70214C12.6 6.70214 14.085 4.5498 16.65 4.5498C19.305 4.5498 21.6 6.6198 21.6 9.4998C21.6 13.7303 15.1604 18.1695 12.9651 20.1101C12.7582 20.293 12.4418 20.293 12.2349 20.1101C10.0405 18.1707 3.59998 13.7301 3.59998 9.4998C3.59998 6.6198 5.89498 4.5498 8.54998 4.5498Z" fill="white" fill-opacity="0.6"/>
<path d="M3.59998 9.41466C3.59998 6.75277 5.75015 4.5498 8.46484 4.5498C10.5868 4.5498 11.9592 5.90856 12.6 6.73653C13.2408 5.90856 14.6132 4.5498 16.7351 4.5498C19.4506 4.5498 21.6 6.75282 21.6 9.41466C21.6 10.5797 21.1328 11.736 20.4534 12.8148C19.7716 13.8974 18.852 14.9401 17.89 15.8875C16.5567 17.2006 15.0757 18.3885 14.0134 19.2405C13.5618 19.6027 13.1859 19.9042 12.9293 20.1288C12.7407 20.2937 12.4592 20.2937 12.2707 20.1288C12.014 19.9042 11.6381 19.6027 11.1866 19.2405C10.1243 18.3885 8.64324 17.2006 7.30995 15.8875C6.348 14.9401 5.42834 13.8974 4.74657 12.8148C4.06722 11.736 3.59998 10.5797 3.59998 9.41466ZM8.46484 5.5498C6.30927 5.5498 4.59998 7.29818 4.59998 9.41466C4.59998 10.3172 4.96551 11.2859 5.59275 12.2819C6.21757 13.274 7.07831 14.2558 8.01163 15.175C9.31031 16.454 10.6842 17.5548 11.7339 18.3959C12.0573 18.655 12.3498 18.8894 12.6 19.0968C12.8501 18.8894 13.1427 18.655 13.466 18.3959C14.5158 17.5548 15.8897 16.454 17.1883 15.175C18.1217 14.2558 18.9824 13.274 19.6072 12.2819C20.2345 11.2859 20.6 10.3172 20.6 9.41466C20.6 7.29813 18.8914 5.5498 16.7351 5.5498C14.6406 5.5498 13.4181 7.25191 13.1033 7.76008C12.8727 8.1323 12.3272 8.13229 12.0967 7.76007C11.7819 7.2519 10.5594 5.5498 8.46484 5.5498Z" fill="#1F2026"/>
</svg>
