<svg width="25" height="24" viewBox="0 0 25 24" fill="none" xmlns="http://www.w3.org/2000/svg">
<path fill-rule="evenodd" clip-rule="evenodd" d="M7.59998 11C7.59998 8.23858 9.83856 6 12.6 6C15.3614 6 17.6 8.23858 17.6 11C17.6 13.2317 16.4079 15.2429 15.1153 16.7262C14.4738 17.4623 13.8212 18.0525 13.3097 18.4561C13.0536 18.6582 12.8375 18.8098 12.6802 18.9082C12.6504 18.9268 12.6237 18.9429 12.6 18.9567C12.5763 18.9429 12.5496 18.9268 12.5198 18.9082C12.3625 18.8098 12.1464 18.6582 11.8903 18.4561C11.3788 18.0525 10.7262 17.4623 10.0847 16.7262C8.79206 15.2429 7.59998 13.2317 7.59998 11ZM12.6 5C9.28627 5 6.59998 7.68629 6.59998 11C6.59998 13.5808 7.96825 15.8196 9.33079 17.3832C10.0169 18.1705 10.7156 18.803 11.2709 19.2411C11.5482 19.46 11.7944 19.634 11.9897 19.7561C12.0866 19.8167 12.1778 19.8688 12.2582 19.9076C12.2982 19.9269 12.3428 19.9465 12.3889 19.9623C12.4251 19.9747 12.5044 20 12.6 20C12.6956 20 12.7749 19.9747 12.8111 19.9623C12.8572 19.9465 12.9018 19.9269 12.9418 19.9076C13.0222 19.8688 13.1134 19.8167 13.2103 19.7561C13.4056 19.634 13.6518 19.46 13.9291 19.2411C14.4844 18.803 15.1831 18.1705 15.8692 17.3832C17.2317 15.8196 18.6 13.5808 18.6 11C18.6 7.68629 15.9137 5 12.6 5ZM11.6 11C11.6 10.4477 12.0477 10 12.6 10C13.1523 10 13.6 10.4477 13.6 11C13.6 11.5523 13.1523 12 12.6 12C12.0477 12 11.6 11.5523 11.6 11ZM12.6 9C11.4954 9 10.6 9.89543 10.6 11C10.6 12.1046 11.4954 13 12.6 13C13.7046 13 14.6 12.1046 14.6 11C14.6 9.89543 13.7046 9 12.6 9Z" fill="#1F2026"/>
</svg>
