<svg data-v-539d07d6="" width="28" height="28" viewBox="0 0 29 28" fill="none" xmlns="http://www.w3.org/2000/svg" class="ui-icon ">
<g id="Icon">
<path id="Icon_2" d="M9.5 7C9.5 4.5444 11.4295 2 14.5 2C17.5705 2 19.5 4.54439 19.5 7H24V22.25C24 24.3211 22.3211 26 20.25 26H8.75C6.67893 26 5 24.3211 5 22.25V7H9.5ZM11 7H18C18 5.25561 16.6295 3.5 14.5 3.5C12.3705 3.5 11 5.2556 11 7ZM9.5 8.5H6.5V22.25C6.5 23.4926 7.50736 24.5 8.75 24.5H20.25C21.4926 24.5 22.5 23.4926 22.5 22.25V8.5H19.5V11.5H18V8.5H11V11.5H9.5V8.5Z" fill="#8B8E99"></path>
</g>
</svg>