<svg data-v-539d07d6="" width="28" height="28" viewBox="0 0 29 28" fill="none" xmlns="http://www.w3.org/2000/svg" class="ui-icon ">
<g id="Icon">
<path id="Icon_2" d="M9.02703 4C5.38324 4 2.5 6.96273 2.5 10.5391C2.5 16 9.99615 21.5 14.0055 24.8139C14.2885 25.062 14.7115 25.062 14.9945 24.8139C19 21.5 26.5 16 26.5 10.5391C26.5 6.96281 23.6178 4 19.973 4C17.2008 4 15.3841 5.6987 14.5 6.79192C13.6159 5.6987 11.7992 4 9.02703 4ZM4 10.5391C4 7.7779 6.22487 5.5 9.02703 5.5C11.7441 5.5 13.3368 7.65762 13.7573 8.32095C14.1013 8.86359 14.8987 8.86359 15.2427 8.32095C15.6632 7.65762 17.2559 5.5 19.973 5.5C22.776 5.5 25 7.77781 25 10.5391C25 15.1 18 20.5 14.5 23.2667C11 20.5 4 15.1 4 10.5391Z" fill="#8B8E99"></path>
</g>
</svg>